<mxfile host="app.diagrams.net" modified="2020-10-23T02:35:34.021Z" agent="5.0 (Windows NT 10.0; Win64; x64) AppleWebKit/537.36 (KHTML, like Gecko) Chrome/85.0.4183.121 Safari/537.36" etag="WKyloL1tFYKRAjhbF9PF" version="13.8.1" type="github">
  <diagram id="mftRaif0nvKXu1TIXFXo" name="Page-1">
    <mxGraphModel dx="1185" dy="662" grid="1" gridSize="10" guides="1" tooltips="1" connect="1" arrows="1" fold="1" page="1" pageScale="1" pageWidth="1654" pageHeight="2336" math="0" shadow="0">
      <root>
        <mxCell id="0" />
        <mxCell id="1" parent="0" />
        <mxCell id="_B_qZ9PfzS8diCxA5h0c-23" value="" style="edgeStyle=orthogonalEdgeStyle;rounded=0;orthogonalLoop=1;jettySize=auto;html=1;" edge="1" parent="1" source="_B_qZ9PfzS8diCxA5h0c-1" target="_B_qZ9PfzS8diCxA5h0c-22">
          <mxGeometry relative="1" as="geometry" />
        </mxCell>
        <mxCell id="_B_qZ9PfzS8diCxA5h0c-28" style="edgeStyle=orthogonalEdgeStyle;rounded=0;orthogonalLoop=1;jettySize=auto;html=1;" edge="1" parent="1" source="_B_qZ9PfzS8diCxA5h0c-1" target="_B_qZ9PfzS8diCxA5h0c-25">
          <mxGeometry relative="1" as="geometry">
            <Array as="points">
              <mxPoint x="560" y="290" />
            </Array>
          </mxGeometry>
        </mxCell>
        <mxCell id="_B_qZ9PfzS8diCxA5h0c-1" value="普通用户（新用户）" style="rounded=0;whiteSpace=wrap;html=1;align=center;fontSize=14;fontStyle=1" vertex="1" parent="1">
          <mxGeometry x="380" y="250" width="140" height="60" as="geometry" />
        </mxCell>
        <mxCell id="_B_qZ9PfzS8diCxA5h0c-19" value="" style="edgeStyle=orthogonalEdgeStyle;rounded=0;orthogonalLoop=1;jettySize=auto;html=1;" edge="1" parent="1" source="_B_qZ9PfzS8diCxA5h0c-2" target="_B_qZ9PfzS8diCxA5h0c-18">
          <mxGeometry relative="1" as="geometry" />
        </mxCell>
        <mxCell id="_B_qZ9PfzS8diCxA5h0c-34" style="edgeStyle=orthogonalEdgeStyle;rounded=0;orthogonalLoop=1;jettySize=auto;html=1;entryX=0.705;entryY=0.033;entryDx=0;entryDy=0;entryPerimeter=0;" edge="1" parent="1" source="_B_qZ9PfzS8diCxA5h0c-2" target="_B_qZ9PfzS8diCxA5h0c-25">
          <mxGeometry relative="1" as="geometry" />
        </mxCell>
        <mxCell id="_B_qZ9PfzS8diCxA5h0c-2" value="会员" style="rounded=0;whiteSpace=wrap;html=1;fontSize=14;fontStyle=1" vertex="1" parent="1">
          <mxGeometry x="715" y="250" width="120" height="60" as="geometry" />
        </mxCell>
        <mxCell id="_B_qZ9PfzS8diCxA5h0c-7" value="" style="edgeStyle=orthogonalEdgeStyle;rounded=0;orthogonalLoop=1;jettySize=auto;html=1;" edge="1" parent="1" source="_B_qZ9PfzS8diCxA5h0c-4" target="_B_qZ9PfzS8diCxA5h0c-6">
          <mxGeometry relative="1" as="geometry" />
        </mxCell>
        <mxCell id="_B_qZ9PfzS8diCxA5h0c-35" style="edgeStyle=orthogonalEdgeStyle;rounded=0;orthogonalLoop=1;jettySize=auto;html=1;fontSize=14;" edge="1" parent="1" source="_B_qZ9PfzS8diCxA5h0c-4" target="_B_qZ9PfzS8diCxA5h0c-25">
          <mxGeometry relative="1" as="geometry">
            <Array as="points">
              <mxPoint x="1030" y="210" />
              <mxPoint x="610" y="210" />
            </Array>
          </mxGeometry>
        </mxCell>
        <mxCell id="_B_qZ9PfzS8diCxA5h0c-4" value="合伙人（付款申请）" style="rounded=0;whiteSpace=wrap;html=1;fontSize=14;fontStyle=1" vertex="1" parent="1">
          <mxGeometry x="960" y="250" width="140" height="60" as="geometry" />
        </mxCell>
        <mxCell id="_B_qZ9PfzS8diCxA5h0c-6" value="普通用户（新用户）" style="rounded=0;whiteSpace=wrap;html=1;" vertex="1" parent="1">
          <mxGeometry x="960" y="400" width="140" height="60" as="geometry" />
        </mxCell>
        <mxCell id="_B_qZ9PfzS8diCxA5h0c-8" value="" style="endArrow=classic;html=1;exitX=1;exitY=0.5;exitDx=0;exitDy=0;" edge="1" parent="1" source="_B_qZ9PfzS8diCxA5h0c-6" target="_B_qZ9PfzS8diCxA5h0c-9">
          <mxGeometry width="50" height="50" relative="1" as="geometry">
            <mxPoint x="920" y="430" as="sourcePoint" />
            <mxPoint x="1180" y="360" as="targetPoint" />
          </mxGeometry>
        </mxCell>
        <mxCell id="_B_qZ9PfzS8diCxA5h0c-9" value="充值金币，开通会员" style="rounded=0;whiteSpace=wrap;html=1;" vertex="1" parent="1">
          <mxGeometry x="1190" y="340" width="120" height="60" as="geometry" />
        </mxCell>
        <mxCell id="_B_qZ9PfzS8diCxA5h0c-10" value="&lt;span&gt;分享链接（获得下级）&lt;/span&gt;" style="text;html=1;align=center;verticalAlign=middle;resizable=0;points=[];autosize=1;" vertex="1" parent="1">
          <mxGeometry x="960" y="340" width="140" height="20" as="geometry" />
        </mxCell>
        <mxCell id="_B_qZ9PfzS8diCxA5h0c-11" value="" style="endArrow=classic;html=1;exitX=0;exitY=0;exitDx=0;exitDy=0;" edge="1" parent="1" source="_B_qZ9PfzS8diCxA5h0c-9" target="_B_qZ9PfzS8diCxA5h0c-4">
          <mxGeometry width="50" height="50" relative="1" as="geometry">
            <mxPoint x="1220" y="330" as="sourcePoint" />
            <mxPoint x="1270" y="280" as="targetPoint" />
          </mxGeometry>
        </mxCell>
        <mxCell id="_B_qZ9PfzS8diCxA5h0c-12" value="返70%钱给上级" style="text;html=1;align=center;verticalAlign=middle;resizable=0;points=[];autosize=1;" vertex="1" parent="1">
          <mxGeometry x="1160" y="300" width="100" height="20" as="geometry" />
        </mxCell>
        <mxCell id="_B_qZ9PfzS8diCxA5h0c-18" value="三天会员（80次/天）&lt;br&gt;一月会员（150次/天）&lt;br&gt;年会员（280次/天）" style="rounded=0;whiteSpace=wrap;html=1;" vertex="1" parent="1">
          <mxGeometry x="700" y="400" width="150" height="60" as="geometry" />
        </mxCell>
        <mxCell id="_B_qZ9PfzS8diCxA5h0c-20" value="查看二维码" style="text;html=1;align=center;verticalAlign=middle;resizable=0;points=[];autosize=1;" vertex="1" parent="1">
          <mxGeometry x="770" y="340" width="80" height="20" as="geometry" />
        </mxCell>
        <mxCell id="_B_qZ9PfzS8diCxA5h0c-22" value="普通用户（3次/天）" style="rounded=0;whiteSpace=wrap;html=1;align=center;" vertex="1" parent="1">
          <mxGeometry x="385" y="400" width="130" height="60" as="geometry" />
        </mxCell>
        <mxCell id="_B_qZ9PfzS8diCxA5h0c-24" value="查看二维码" style="text;html=1;align=center;verticalAlign=middle;resizable=0;points=[];autosize=1;" vertex="1" parent="1">
          <mxGeometry x="450" y="340" width="80" height="20" as="geometry" />
        </mxCell>
        <mxCell id="_B_qZ9PfzS8diCxA5h0c-25" value="充值金币后发布（30金币/次）" style="whiteSpace=wrap;html=1;fillColor=none;" vertex="1" parent="1">
          <mxGeometry x="510" y="640" width="200" height="60" as="geometry" />
        </mxCell>
        <mxCell id="_B_qZ9PfzS8diCxA5h0c-29" value="发布二维码" style="text;html=1;align=center;verticalAlign=middle;resizable=0;points=[];autosize=1;" vertex="1" parent="1">
          <mxGeometry x="570" y="510" width="80" height="20" as="geometry" />
        </mxCell>
      </root>
    </mxGraphModel>
  </diagram>
</mxfile>
